<svg xmlns="http://www.w3.org/2000/svg" xmlns:xlink="http://www.w3.org/1999/xlink" width="350" zoomAndPan="magnify" viewBox="0 0 262.5 149.999998" height="200" preserveAspectRatio="xMidYMid meet" version="1.0"><defs><g/><clipPath id="376c0a86d7"><path d="M 22 5 L 76 5 L 76 65.109375 L 22 65.109375 Z M 22 5 " clip-rule="nonzero"/></clipPath></defs><g fill="#ffffff" fill-opacity="1"><g transform="translate(33.542038, 144.189844)"><g><path d="M 10.980469 0 L 20.457031 0 L 20.457031 -75.371094 L 10.980469 -75.371094 Z M 10.980469 0 "/></g></g></g><g clip-path="url(#376c0a86d7)"><path fill="#ffffff" d="M 26.101562 27.511719 C 29.351562 23.9375 33.488281 22.125 38.394531 22.125 C 43.25 22.125 47.429688 23.921875 49.027344 24.707031 C 49.066406 24.566406 49.101562 24.421875 49.140625 24.277344 C 49.222656 23.984375 49.3125 23.683594 49.402344 23.375 C 49.449219 23.222656 49.496094 23.066406 49.542969 22.910156 C 49.589844 22.753906 49.644531 22.597656 49.699219 22.4375 C 49.804688 22.121094 49.914062 21.800781 50.023438 21.476562 C 50.144531 21.152344 50.265625 20.828125 50.390625 20.5 C 50.492188 20.214844 50.613281 19.9375 50.734375 19.660156 C 48.914062 20.363281 47.164062 20.71875 45.492188 20.71875 C 43.871094 20.71875 42.324219 20.386719 40.855469 19.722656 C 34.144531 16.683594 31.664062 7.808594 31.5625 7.429688 C 31.558594 7.414062 31.554688 7.394531 31.550781 7.375 C 31.550781 7.371094 31.546875 7.363281 31.546875 7.355469 C 31.542969 7.332031 31.539062 7.3125 31.539062 7.289062 C 31.535156 7.28125 31.535156 7.273438 31.535156 7.265625 C 31.535156 7.246094 31.53125 7.222656 31.53125 7.199219 C 31.53125 7.195312 31.53125 7.1875 31.53125 7.179688 C 31.535156 7.15625 31.535156 7.136719 31.535156 7.113281 C 31.539062 7.105469 31.539062 7.097656 31.539062 7.089844 C 31.542969 7.070312 31.546875 7.050781 31.550781 7.03125 C 31.550781 7.023438 31.550781 7.015625 31.554688 7.007812 C 31.558594 6.988281 31.5625 6.96875 31.570312 6.949219 C 31.570312 6.941406 31.574219 6.933594 31.578125 6.925781 C 31.582031 6.90625 31.589844 6.886719 31.597656 6.871094 C 31.601562 6.863281 31.601562 6.851562 31.605469 6.84375 C 31.613281 6.828125 31.621094 6.8125 31.628906 6.796875 C 31.636719 6.785156 31.640625 6.777344 31.644531 6.765625 C 31.652344 6.753906 31.660156 6.738281 31.671875 6.726562 C 31.675781 6.714844 31.683594 6.703125 31.691406 6.695312 C 31.699219 6.679688 31.707031 6.667969 31.71875 6.65625 C 31.726562 6.648438 31.734375 6.636719 31.742188 6.625 C 31.753906 6.613281 31.761719 6.605469 31.769531 6.59375 C 31.78125 6.585938 31.792969 6.574219 31.800781 6.5625 C 31.8125 6.554688 31.820312 6.546875 31.832031 6.535156 C 31.84375 6.527344 31.855469 6.515625 31.867188 6.503906 C 31.875 6.5 31.886719 6.492188 31.894531 6.484375 C 31.910156 6.472656 31.921875 6.464844 31.9375 6.453125 C 31.945312 6.449219 31.957031 6.441406 31.96875 6.4375 C 31.984375 6.429688 31.996094 6.417969 32.011719 6.410156 C 32.023438 6.40625 32.035156 6.402344 32.042969 6.398438 C 32.058594 6.386719 32.078125 6.378906 32.09375 6.375 C 32.105469 6.371094 32.113281 6.367188 32.125 6.363281 C 32.140625 6.359375 32.15625 6.351562 32.171875 6.347656 C 32.546875 6.238281 41.410156 3.722656 47.503906 7.863281 C 50.132812 9.648438 51.820312 12.386719 52.542969 16.015625 C 52.601562 15.917969 52.660156 15.820312 52.71875 15.722656 C 52.808594 15.574219 52.898438 15.425781 52.988281 15.28125 C 53.074219 15.132812 53.164062 14.988281 53.261719 14.847656 C 53.640625 14.292969 54 13.742188 54.390625 13.257812 C 54.582031 13.015625 54.757812 12.769531 54.945312 12.542969 C 55.136719 12.324219 55.324219 12.109375 55.5 11.902344 C 55.84375 11.488281 56.214844 11.128906 56.53125 10.808594 C 56.691406 10.648438 56.839844 10.5 56.976562 10.363281 C 57.117188 10.238281 57.242188 10.125 57.355469 10.023438 C 57.816406 9.617188 58.078125 9.386719 58.078125 9.386719 C 58.085938 9.378906 58.09375 9.371094 58.101562 9.363281 C 58.480469 9.050781 59.039062 9.105469 59.351562 9.484375 C 59.664062 9.863281 59.609375 10.421875 59.230469 10.734375 C 59.230469 10.734375 58.960938 10.957031 58.488281 11.347656 C 58.367188 11.445312 58.238281 11.550781 58.09375 11.667969 C 57.96875 11.789062 57.832031 11.917969 57.683594 12.054688 C 57.394531 12.332031 57.054688 12.632812 56.714844 13.015625 C 56.542969 13.199219 56.363281 13.390625 56.175781 13.589844 C 55.992188 13.796875 55.816406 14.019531 55.628906 14.242188 C 55.246094 14.679688 54.890625 15.183594 54.511719 15.699219 C 54.414062 15.824219 54.328125 15.960938 54.238281 16.09375 C 54.152344 16.230469 54.0625 16.367188 53.972656 16.503906 C 53.789062 16.78125 53.605469 17.054688 53.441406 17.351562 C 53.269531 17.640625 53.097656 17.933594 52.925781 18.226562 C 52.769531 18.527344 52.609375 18.832031 52.449219 19.136719 C 52.285156 19.433594 52.144531 19.75 52 20.058594 C 51.855469 20.371094 51.703125 20.671875 51.578125 20.988281 C 51.445312 21.300781 51.316406 21.609375 51.1875 21.914062 C 51.070312 22.226562 50.953125 22.535156 50.839844 22.835938 C 50.78125 22.988281 50.722656 23.136719 50.671875 23.285156 C 50.621094 23.4375 50.570312 23.585938 50.519531 23.734375 C 50.453125 23.9375 50.382812 24.136719 50.316406 24.335938 C 52.277344 23.464844 55.964844 22.125 60.15625 22.125 C 65.0625 22.125 69.199219 23.9375 72.449219 27.515625 C 77.917969 33.527344 76 44.386719 72.695312 51.855469 C 69.113281 59.953125 63.804688 65.191406 59.15625 65.230469 C 59.042969 65.242188 58.777344 65.265625 58.394531 65.265625 C 57.285156 65.265625 55.054688 65.082031 52.570312 63.855469 C 52.550781 63.84375 52.527344 63.832031 52.507812 63.820312 C 51.582031 63.269531 49.964844 62.492188 49.277344 62.492188 C 48.585938 62.492188 46.96875 63.269531 46.042969 63.820312 C 46.023438 63.832031 46.003906 63.84375 45.980469 63.855469 C 43.496094 65.082031 41.265625 65.265625 40.15625 65.265625 C 39.773438 65.265625 39.507812 65.242188 39.394531 65.230469 C 34.746094 65.191406 29.4375 59.953125 25.859375 51.855469 C 22.554688 44.386719 20.632812 33.527344 26.101562 27.511719 Z M 46.515625 9.332031 C 42.152344 6.367188 35.859375 7.339844 33.554688 7.835938 C 34.328125 10.058594 36.777344 15.925781 41.589844 18.105469 C 44.355469 19.359375 47.519531 19.195312 51.007812 17.621094 C 50.53125 13.828125 49.023438 11.039062 46.515625 9.332031 Z M 27.480469 51.136719 C 30.738281 58.507812 35.546875 63.457031 39.445312 63.457031 C 39.480469 63.457031 39.519531 63.457031 39.554688 63.460938 C 39.554688 63.460938 39.777344 63.488281 40.15625 63.488281 C 41.105469 63.488281 43.015625 63.332031 45.167969 62.277344 C 45.675781 61.976562 47.886719 60.71875 49.277344 60.71875 C 50.667969 60.71875 52.875 61.976562 53.386719 62.277344 C 55.535156 63.332031 57.445312 63.488281 58.394531 63.488281 C 58.773438 63.488281 58.996094 63.464844 58.996094 63.464844 C 59.03125 63.457031 59.070312 63.457031 59.105469 63.457031 C 63.003906 63.457031 67.8125 58.507812 71.070312 51.140625 C 72.910156 46.984375 73.988281 42.574219 74.109375 38.714844 C 74.242188 34.453125 73.214844 30.992188 71.136719 28.707031 C 68.238281 25.515625 64.542969 23.898438 60.15625 23.898438 C 54.554688 23.898438 49.761719 26.578125 49.714844 26.605469 C 49.691406 26.617188 49.667969 26.628906 49.644531 26.640625 C 49.554688 26.972656 49.472656 27.289062 49.410156 27.578125 C 49.3125 27.988281 49.222656 28.347656 49.164062 28.644531 C 49.039062 29.238281 48.96875 29.578125 48.96875 29.578125 L 48.964844 29.589844 C 48.914062 29.839844 48.675781 30.003906 48.421875 29.960938 C 48.167969 29.914062 47.992188 29.671875 48.039062 29.414062 C 48.039062 29.414062 48.097656 29.066406 48.203125 28.457031 C 48.25 28.148438 48.328125 27.78125 48.410156 27.359375 C 48.460938 27.085938 48.527344 26.789062 48.597656 26.476562 C 47.554688 25.941406 43.285156 23.898438 38.394531 23.898438 C 34.007812 23.898438 30.3125 25.515625 27.414062 28.707031 C 25.335938 30.992188 24.308594 34.453125 24.441406 38.714844 C 24.5625 42.570312 25.644531 46.984375 27.480469 51.136719 Z M 27.480469 51.136719 " fill-opacity="1" fill-rule="nonzero"/></g><g fill="#ffffff" fill-opacity="1"><g transform="translate(75.49992, 144.895965)"><g><path d="M 5.679688 0 L 21.496094 0 C 29.351562 0 34.25 -4.175781 34.25 -10.914062 C 34.25 -15.316406 32.078125 -18.601562 28.070312 -20.214844 C 31.242188 -21.832031 33.136719 -24.839844 33.136719 -28.625 C 33.136719 -34.917969 28.234375 -38.984375 20.773438 -38.984375 L 5.679688 -38.984375 Z M 10.582031 -4.566406 L 10.582031 -17.65625 L 21.332031 -17.65625 C 26.398438 -17.65625 29.238281 -15.257812 29.238281 -11.136719 C 29.238281 -6.960938 26.398438 -4.566406 21.386719 -4.566406 Z M 10.582031 -22.109375 L 10.582031 -34.417969 L 20.660156 -34.417969 C 25.394531 -34.417969 28.125 -32.191406 28.125 -28.234375 C 28.125 -24.335938 25.453125 -22.109375 20.660156 -22.109375 Z M 10.582031 -22.109375 "/></g></g></g><g fill="#ffffff" fill-opacity="1"><g transform="translate(135.143363, 144.895965)"><g><path d="M 20.273438 0.667969 C 29.683594 0.667969 35.363281 -5.511719 35.363281 -15.871094 L 35.363281 -38.984375 L 30.464844 -38.984375 L 30.464844 -16.207031 C 30.464844 -8.242188 26.957031 -4.121094 20.273438 -4.121094 C 13.644531 -4.121094 10.082031 -8.242188 10.082031 -16.207031 L 10.082031 -38.984375 L 5.234375 -38.984375 L 5.234375 -15.871094 C 5.234375 -5.511719 10.859375 0.667969 20.273438 0.667969 Z M 20.273438 0.667969 "/></g></g></g><g fill="#ffffff" fill-opacity="1"><g transform="translate(198.016661, 144.895965)"><g><path d="M 15.59375 0 L 20.382812 0 L 20.382812 -14.035156 L 35.03125 -38.984375 L 29.515625 -38.984375 L 18.042969 -19.269531 L 12.976562 -28.070312 L 6.628906 -38.984375 L 0.945312 -38.984375 L 15.59375 -14.035156 Z M 15.59375 0 "/></g></g></g></svg>