<svg xmlns="http://www.w3.org/2000/svg" xmlns:xlink="http://www.w3.org/1999/xlink" width="520" zoomAndPan="magnify" viewBox="0 0 390 389.999986" height="520" preserveAspectRatio="xMidYMid meet" version="1.0"><defs><g/><clipPath id="823e8bc89b"><path d="M 195 0 C 87.304688 0 0 87.304688 0 195 C 0 302.695312 87.304688 390 195 390 C 302.695312 390 390 302.695312 390 195 C 390 87.304688 302.695312 0 195 0 Z M 195 0 " clip-rule="nonzero"/></clipPath><clipPath id="0d54232270"><path d="M 79 69 L 310 69 L 310 327.664062 L 79 327.664062 Z M 79 69 " clip-rule="nonzero"/></clipPath></defs><g clip-path="url(#823e8bc89b)"><rect x="-39" width="468" fill="#ffffff" y="-38.999999" height="467.999983" fill-opacity="1"/></g><g clip-path="url(#0d54232270)"><path fill="#000000" d="M 94.832031 164.773438 C 108.867188 149.351562 126.734375 141.53125 147.929688 141.53125 C 168.914062 141.53125 186.964844 149.273438 193.863281 152.664062 C 194.023438 152.054688 194.183594 151.4375 194.347656 150.808594 C 194.699219 149.542969 195.101562 148.246094 195.488281 146.921875 C 195.6875 146.257812 195.886719 145.585938 196.085938 144.910156 C 196.296875 144.234375 196.53125 143.5625 196.757812 142.878906 C 197.21875 141.515625 197.6875 140.128906 198.160156 138.726562 C 198.6875 137.335938 199.21875 135.933594 199.753906 134.515625 C 200.191406 133.292969 200.722656 132.097656 201.238281 130.890625 C 193.375 133.929688 185.8125 135.457031 178.585938 135.457031 C 171.582031 135.457031 164.898438 134.027344 158.570312 131.164062 C 129.566406 118.054688 118.863281 79.765625 118.421875 78.144531 C 118.402344 78.066406 118.386719 77.984375 118.371094 77.90625 C 118.363281 77.875 118.355469 77.84375 118.351562 77.8125 C 118.332031 77.71875 118.320312 77.625 118.3125 77.527344 C 118.308594 77.496094 118.304688 77.460938 118.300781 77.429688 C 118.292969 77.335938 118.292969 77.242188 118.292969 77.148438 C 118.292969 77.117188 118.289062 77.085938 118.289062 77.050781 C 118.292969 76.960938 118.300781 76.867188 118.308594 76.777344 C 118.3125 76.742188 118.3125 76.710938 118.316406 76.679688 C 118.328125 76.589844 118.34375 76.5 118.363281 76.410156 C 118.367188 76.378906 118.371094 76.34375 118.378906 76.3125 C 118.398438 76.226562 118.421875 76.144531 118.449219 76.0625 C 118.457031 76.023438 118.464844 75.988281 118.480469 75.953125 C 118.503906 75.875 118.535156 75.800781 118.566406 75.726562 C 118.582031 75.6875 118.59375 75.644531 118.609375 75.609375 C 118.640625 75.539062 118.675781 75.46875 118.710938 75.402344 C 118.734375 75.359375 118.753906 75.316406 118.777344 75.277344 C 118.8125 75.214844 118.847656 75.15625 118.886719 75.09375 C 118.914062 75.050781 118.941406 75.003906 118.972656 74.960938 C 119.007812 74.910156 119.050781 74.855469 119.089844 74.804688 C 119.125 74.757812 119.160156 74.710938 119.199219 74.667969 C 119.238281 74.621094 119.28125 74.578125 119.320312 74.535156 C 119.363281 74.488281 119.40625 74.441406 119.453125 74.398438 C 119.492188 74.355469 119.535156 74.320312 119.578125 74.285156 C 119.628906 74.238281 119.679688 74.191406 119.730469 74.148438 C 119.773438 74.117188 119.816406 74.085938 119.859375 74.054688 C 119.917969 74.011719 119.976562 73.96875 120.039062 73.929688 C 120.078125 73.902344 120.125 73.878906 120.167969 73.851562 C 120.234375 73.8125 120.296875 73.773438 120.367188 73.738281 C 120.410156 73.71875 120.453125 73.699219 120.496094 73.679688 C 120.570312 73.644531 120.644531 73.609375 120.71875 73.582031 C 120.761719 73.566406 120.804688 73.550781 120.84375 73.539062 C 120.910156 73.511719 120.976562 73.488281 121.046875 73.46875 C 122.664062 72.996094 160.957031 62.140625 187.289062 80.003906 C 198.644531 87.710938 205.929688 99.527344 209.050781 115.175781 C 209.304688 114.753906 209.558594 114.332031 209.816406 113.910156 C 210.203125 113.269531 210.589844 112.632812 210.96875 112 C 211.351562 111.367188 211.730469 110.738281 212.152344 110.144531 C 213.796875 107.734375 215.339844 105.371094 217.027344 103.28125 C 217.851562 102.226562 218.621094 101.167969 219.429688 100.199219 C 220.257812 99.242188 221.058594 98.320312 221.828125 97.433594 C 223.316406 95.636719 224.914062 94.101562 226.277344 92.714844 C 226.964844 92.027344 227.609375 91.378906 228.203125 90.785156 C 228.800781 90.253906 229.347656 89.769531 229.84375 89.332031 C 231.824219 87.574219 232.957031 86.574219 232.957031 86.574219 C 232.988281 86.546875 233.03125 86.507812 233.0625 86.480469 C 234.699219 85.136719 237.113281 85.371094 238.457031 87 C 239.804688 88.632812 239.570312 91.046875 237.9375 92.390625 C 237.9375 92.390625 236.769531 93.347656 234.726562 95.03125 C 234.214844 95.453125 233.648438 95.917969 233.03125 96.421875 C 232.484375 96.9375 231.894531 97.496094 231.261719 98.089844 C 230 99.289062 228.539062 100.574219 227.070312 102.226562 C 226.324219 103.023438 225.542969 103.855469 224.734375 104.714844 C 223.949219 105.59375 223.195312 106.558594 222.382812 107.519531 C 220.726562 109.414062 219.199219 111.589844 217.558594 113.800781 C 217.136719 114.347656 216.761719 114.929688 216.378906 115.515625 C 215.996094 116.101562 215.605469 116.691406 215.21875 117.285156 C 214.4375 118.46875 213.632812 119.660156 212.925781 120.929688 C 212.191406 122.179688 211.449219 123.441406 210.707031 124.710938 C 210.023438 126.015625 209.335938 127.320312 208.648438 128.632812 C 207.933594 129.925781 207.335938 131.28125 206.703125 132.613281 C 206.082031 133.953125 205.417969 135.265625 204.878906 136.625 C 204.308594 137.972656 203.746094 139.308594 203.191406 140.625 C 202.683594 141.96875 202.179688 143.292969 201.683594 144.59375 C 201.441406 145.25 201.1875 145.890625 200.960938 146.539062 C 200.742188 147.1875 200.523438 147.832031 200.308594 148.46875 C 200.015625 149.347656 199.722656 150.210938 199.4375 151.0625 C 207.894531 147.304688 223.828125 141.535156 241.941406 141.535156 C 263.136719 141.535156 281.003906 149.355469 295.039062 164.773438 C 318.660156 190.722656 310.371094 237.5625 296.09375 269.789062 C 280.625 304.707031 257.695312 327.316406 237.617188 327.476562 C 237.121094 327.527344 235.980469 327.621094 234.324219 327.621094 C 234.324219 327.621094 234.324219 327.621094 234.320312 327.621094 C 229.535156 327.621094 219.902344 326.832031 209.164062 321.539062 C 209.074219 321.496094 208.984375 321.445312 208.898438 321.394531 C 204.898438 319.015625 197.917969 315.664062 194.933594 315.664062 C 191.953125 315.664062 184.972656 319.015625 180.972656 321.394531 C 180.886719 321.445312 180.796875 321.492188 180.707031 321.539062 C 169.964844 326.832031 160.332031 327.621094 155.546875 327.621094 C 153.890625 327.621094 152.746094 327.527344 152.25 327.476562 C 132.175781 327.316406 109.246094 304.707031 93.777344 269.789062 C 79.5 237.558594 71.210938 190.71875 94.832031 164.773438 Z M 183.007812 86.347656 C 164.171875 73.546875 136.976562 77.746094 127.023438 79.886719 C 130.375 89.476562 140.9375 114.792969 161.730469 124.191406 C 173.675781 129.59375 187.355469 128.882812 202.417969 122.097656 C 200.359375 105.738281 193.84375 93.710938 183.007812 86.347656 Z M 100.785156 266.6875 C 114.863281 298.46875 135.632812 319.820312 152.46875 319.820312 C 152.621094 319.820312 152.789062 319.832031 152.9375 319.851562 C 152.949219 319.851562 153.902344 319.964844 155.546875 319.964844 C 159.644531 319.964844 167.894531 319.28125 177.183594 314.734375 C 179.382812 313.4375 188.929688 308.007812 194.9375 308.007812 C 200.941406 308.007812 210.488281 313.4375 212.6875 314.734375 C 221.976562 319.28125 230.222656 319.964844 234.324219 319.964844 C 235.964844 319.964844 236.917969 319.851562 236.917969 319.851562 C 237.078125 319.832031 237.242188 319.820312 237.402344 319.820312 C 254.238281 319.820312 275.007812 298.46875 289.085938 266.6875 C 297.023438 248.769531 301.683594 229.734375 302.203125 213.089844 C 302.78125 194.707031 298.34375 179.777344 289.371094 169.917969 C 276.84375 156.160156 260.886719 149.183594 241.941406 149.183594 C 217.742188 149.183594 197.03125 160.742188 196.828125 160.859375 C 196.730469 160.914062 196.628906 160.957031 196.527344 161.003906 C 196.144531 162.449219 195.789062 163.804688 195.511719 165.054688 C 195.09375 166.828125 194.703125 168.371094 194.453125 169.65625 C 193.917969 172.21875 193.609375 173.683594 193.609375 173.683594 L 193.597656 173.738281 C 193.371094 174.804688 192.339844 175.511719 191.253906 175.328125 C 190.144531 175.136719 189.394531 174.082031 189.585938 172.972656 C 189.585938 172.972656 189.84375 171.46875 190.292969 168.839844 C 190.5 167.519531 190.839844 165.933594 191.195312 164.105469 C 191.414062 162.929688 191.695312 161.652344 192 160.304688 C 187.507812 157.988281 169.050781 149.183594 147.929688 149.183594 C 128.980469 149.183594 113.023438 156.160156 100.5 169.917969 C 91.527344 179.777344 87.089844 194.707031 87.664062 213.089844 C 88.1875 229.734375 92.847656 248.765625 100.785156 266.6875 Z M 100.785156 266.6875 " fill-opacity="1" fill-rule="nonzero"/></g><g fill="#000000" fill-opacity="1"><g transform="translate(118.244842, 255.650439)"><g><path d="M 8.285156 0 L 15.4375 0 L 15.4375 -56.871094 L 8.285156 -56.871094 Z M 8.285156 0 "/></g></g></g><g fill="#000000" fill-opacity="1"><g transform="translate(146.886209, 254.426812)"><g><path d="M 4.285156 0 L 16.222656 0 C 22.144531 0 25.84375 -3.152344 25.84375 -8.238281 C 25.84375 -11.554688 24.207031 -14.035156 21.179688 -15.253906 C 23.574219 -16.472656 25.003906 -18.742188 25.003906 -21.601562 C 25.003906 -26.347656 21.304688 -29.417969 15.675781 -29.417969 L 4.285156 -29.417969 Z M 7.984375 -3.445312 L 7.984375 -13.320312 L 16.09375 -13.320312 C 19.917969 -13.320312 22.0625 -11.515625 22.0625 -8.40625 C 22.0625 -5.253906 19.917969 -3.445312 16.136719 -3.445312 Z M 7.984375 -16.683594 L 7.984375 -25.96875 L 15.589844 -25.96875 C 19.164062 -25.96875 21.222656 -24.289062 21.222656 -21.304688 C 21.222656 -18.363281 19.203125 -16.683594 15.589844 -16.683594 Z M 7.984375 -16.683594 "/></g></g></g><g fill="#000000" fill-opacity="1"><g transform="translate(191.891159, 254.426812)"><g><path d="M 15.296875 0.503906 C 22.398438 0.503906 26.683594 -4.160156 26.683594 -11.976562 L 26.683594 -29.417969 L 22.988281 -29.417969 L 22.988281 -12.230469 C 22.988281 -6.21875 20.339844 -3.109375 15.296875 -3.109375 C 10.296875 -3.109375 7.605469 -6.21875 7.605469 -12.230469 L 7.605469 -29.417969 L 3.949219 -29.417969 L 3.949219 -11.976562 C 3.949219 -4.160156 8.195312 0.503906 15.296875 0.503906 Z M 15.296875 0.503906 "/></g></g></g><g fill="#000000" fill-opacity="1"><g transform="translate(239.333249, 254.426812)"><g><path d="M 11.765625 0 L 15.378906 0 L 15.378906 -10.589844 L 26.433594 -29.417969 L 22.273438 -29.417969 L 13.617188 -14.539062 L 9.792969 -21.179688 L 5 -29.417969 L 0.714844 -29.417969 L 11.765625 -10.589844 Z M 11.765625 0 "/></g></g></g></svg>