<svg xmlns="http://www.w3.org/2000/svg" xmlns:xlink="http://www.w3.org/1999/xlink" width="520" zoomAndPan="magnify" viewBox="0 0 390 389.999986" height="520" preserveAspectRatio="xMidYMid meet" version="1.0"><defs><g/></defs><path fill="#ffffff" d="M 48.199219 150.722656 C 68.792969 128.066406 95 116.582031 126.09375 116.582031 C 156.871094 116.582031 183.355469 127.953125 193.472656 132.933594 C 193.707031 132.039062 193.945312 131.132812 194.183594 130.210938 C 194.699219 128.347656 195.289062 126.449219 195.859375 124.5 C 196.144531 123.523438 196.4375 122.539062 196.734375 121.546875 C 197.042969 120.554688 197.390625 119.566406 197.71875 118.5625 C 198.398438 116.558594 199.082031 114.523438 199.777344 112.460938 C 200.546875 110.421875 201.328125 108.359375 202.113281 106.277344 C 202.753906 104.484375 203.53125 102.726562 204.289062 100.949219 C 192.757812 105.414062 181.660156 107.65625 171.0625 107.65625 C 160.789062 107.65625 150.984375 105.558594 141.699219 101.355469 C 99.15625 82.09375 83.453125 25.855469 82.808594 23.46875 C 82.777344 23.355469 82.753906 23.238281 82.730469 23.125 C 82.722656 23.078125 82.710938 23.027344 82.703125 22.980469 C 82.675781 22.84375 82.660156 22.707031 82.644531 22.566406 C 82.640625 22.519531 82.632812 22.46875 82.628906 22.421875 C 82.617188 22.285156 82.617188 22.148438 82.617188 22.007812 C 82.617188 21.960938 82.613281 21.914062 82.613281 21.867188 C 82.617188 21.730469 82.628906 21.59375 82.640625 21.460938 C 82.644531 21.414062 82.648438 21.363281 82.652344 21.316406 C 82.667969 21.183594 82.691406 21.054688 82.71875 20.925781 C 82.730469 20.878906 82.734375 20.828125 82.746094 20.78125 C 82.773438 20.65625 82.808594 20.53125 82.84375 20.410156 C 82.859375 20.359375 82.871094 20.304688 82.890625 20.253906 C 82.925781 20.140625 82.972656 20.027344 83.015625 19.917969 C 83.039062 19.859375 83.058594 19.800781 83.082031 19.746094 C 83.128906 19.640625 83.179688 19.542969 83.230469 19.441406 C 83.261719 19.382812 83.289062 19.320312 83.324219 19.257812 C 83.378906 19.167969 83.433594 19.078125 83.488281 18.992188 C 83.53125 18.925781 83.570312 18.859375 83.613281 18.796875 C 83.667969 18.71875 83.726562 18.640625 83.789062 18.566406 C 83.839844 18.5 83.890625 18.429688 83.945312 18.367188 C 84.003906 18.296875 84.066406 18.234375 84.125 18.167969 C 84.1875 18.101562 84.25 18.03125 84.316406 17.964844 C 84.375 17.910156 84.441406 17.855469 84.5 17.800781 C 84.578125 17.734375 84.648438 17.667969 84.730469 17.605469 C 84.789062 17.554688 84.855469 17.511719 84.917969 17.464844 C 85 17.402344 85.085938 17.339844 85.175781 17.28125 C 85.238281 17.242188 85.304688 17.207031 85.367188 17.167969 C 85.464844 17.109375 85.558594 17.054688 85.660156 17 C 85.722656 16.96875 85.789062 16.941406 85.851562 16.914062 C 85.957031 16.863281 86.066406 16.8125 86.175781 16.769531 C 86.238281 16.746094 86.300781 16.726562 86.359375 16.703125 C 86.460938 16.667969 86.558594 16.628906 86.65625 16.601562 C 89.03125 15.910156 145.203125 -0.0390625 183.828125 26.203125 C 200.484375 37.523438 211.171875 54.878906 215.75 77.867188 C 216.125 77.246094 216.5 76.625 216.871094 76.011719 C 217.441406 75.070312 218.007812 74.132812 218.566406 73.203125 C 219.125 72.273438 219.679688 71.347656 220.300781 70.472656 C 222.714844 66.9375 224.972656 63.464844 227.453125 60.394531 C 228.660156 58.84375 229.789062 57.292969 230.972656 55.867188 C 232.191406 54.464844 233.367188 53.109375 234.496094 51.808594 C 236.675781 49.167969 239.019531 46.910156 241.023438 44.875 C 242.03125 43.863281 242.976562 42.914062 243.847656 42.039062 C 244.722656 41.261719 245.527344 40.546875 246.253906 39.902344 C 249.15625 37.324219 250.816406 35.851562 250.816406 35.851562 C 250.863281 35.8125 250.929688 35.753906 250.976562 35.714844 C 253.375 33.742188 256.917969 34.085938 258.890625 36.480469 C 260.863281 38.878906 260.519531 42.421875 258.125 44.394531 C 258.125 44.394531 256.410156 45.804688 253.414062 48.277344 C 252.664062 48.894531 251.835938 49.578125 250.929688 50.320312 C 250.128906 51.078125 249.257812 51.894531 248.332031 52.769531 C 246.484375 54.53125 244.335938 56.421875 242.1875 58.84375 C 241.085938 60.015625 239.945312 61.238281 238.761719 62.503906 C 237.605469 63.792969 236.496094 65.210938 235.308594 66.621094 C 232.878906 69.40625 230.636719 72.601562 228.230469 75.851562 C 227.613281 76.648438 227.058594 77.507812 226.5 78.367188 C 225.9375 79.226562 225.367188 80.09375 224.796875 80.964844 C 223.65625 82.707031 222.472656 84.457031 221.433594 86.316406 C 220.355469 88.15625 219.269531 90.011719 218.179688 91.875 C 217.175781 93.789062 216.167969 95.710938 215.160156 97.632812 C 214.113281 99.535156 213.234375 101.527344 212.304688 103.484375 C 211.398438 105.453125 210.421875 107.378906 209.628906 109.375 C 208.796875 111.351562 207.972656 113.316406 207.15625 115.253906 C 206.410156 117.222656 205.671875 119.167969 204.945312 121.082031 C 204.589844 122.042969 204.21875 122.988281 203.882812 123.9375 C 203.5625 124.890625 203.242188 125.835938 202.929688 126.769531 C 202.5 128.066406 202.066406 129.332031 201.648438 130.585938 C 214.058594 125.0625 237.429688 116.585938 263.996094 116.585938 C 295.089844 116.585938 321.296875 128.074219 341.890625 150.726562 C 376.539062 188.839844 364.375 257.644531 343.433594 304.980469 C 320.742188 356.273438 287.109375 389.484375 257.65625 389.722656 C 256.929688 389.796875 255.253906 389.933594 252.824219 389.933594 C 252.824219 389.933594 252.824219 389.933594 252.820312 389.933594 C 245.800781 389.933594 231.671875 388.773438 215.917969 381 C 215.785156 380.933594 215.65625 380.863281 215.53125 380.789062 C 209.65625 377.292969 199.417969 372.371094 195.042969 372.371094 C 190.667969 372.371094 180.433594 377.292969 174.5625 380.785156 C 174.433594 380.863281 174.304688 380.933594 174.171875 381 C 158.417969 388.773438 144.285156 389.933594 137.265625 389.933594 C 134.835938 389.933594 133.160156 389.796875 132.429688 389.722656 C 102.980469 389.484375 69.34375 356.277344 46.652344 304.980469 C 25.714844 257.636719 13.554688 188.835938 48.199219 150.722656 Z M 177.546875 35.523438 C 149.914062 16.71875 110.023438 22.886719 95.425781 26.03125 C 100.339844 40.117188 115.835938 77.304688 146.335938 91.109375 C 163.863281 99.046875 183.929688 98.003906 206.023438 88.035156 C 203.003906 64.003906 193.441406 46.339844 177.546875 35.523438 Z M 56.933594 300.425781 C 77.589844 347.109375 108.054688 378.476562 132.75 378.476562 C 132.972656 378.476562 133.21875 378.492188 133.441406 378.519531 C 133.453125 378.519531 134.851562 378.6875 137.265625 378.6875 C 143.28125 378.6875 155.375 377.683594 169.003906 371.007812 C 172.234375 369.097656 186.238281 361.121094 195.046875 361.121094 C 203.855469 361.121094 217.859375 369.097656 221.085938 371.007812 C 234.714844 377.683594 246.808594 378.6875 252.824219 378.6875 C 255.234375 378.6875 256.632812 378.523438 256.632812 378.523438 C 256.867188 378.492188 257.105469 378.476562 257.339844 378.476562 C 282.035156 378.476562 312.5 347.109375 333.152344 300.425781 C 344.800781 274.105469 351.632812 246.144531 352.398438 221.699219 C 353.246094 194.691406 346.734375 172.761719 333.570312 158.28125 C 315.199219 138.070312 291.789062 127.820312 263.996094 127.820312 C 228.503906 127.820312 198.121094 144.800781 197.824219 144.972656 C 197.679688 145.050781 197.53125 145.117188 197.382812 145.183594 C 196.816406 147.304688 196.296875 149.300781 195.886719 151.136719 C 195.277344 153.742188 194.707031 156.007812 194.339844 157.894531 C 193.550781 161.660156 193.097656 163.808594 193.097656 163.808594 L 193.082031 163.890625 C 192.75 165.460938 191.238281 166.496094 189.644531 166.222656 C 188.015625 165.945312 186.917969 164.398438 187.199219 162.765625 C 187.199219 162.765625 187.574219 160.558594 188.234375 156.691406 C 188.539062 154.753906 189.035156 152.425781 189.5625 149.742188 C 189.882812 148.011719 190.289062 146.140625 190.738281 144.160156 C 184.148438 140.753906 157.074219 127.824219 126.089844 127.824219 C 98.296875 127.824219 74.890625 138.070312 56.515625 158.28125 C 43.351562 172.761719 36.84375 194.691406 37.6875 221.695312 C 38.457031 246.144531 45.292969 274.105469 56.933594 300.425781 Z M 56.933594 300.425781 " fill-opacity="1" fill-rule="nonzero"/><g fill="#ffffff" fill-opacity="1"><g transform="translate(65.74824, 292.973104)"><g><path d="M 13.703125 0 L 25.527344 0 L 25.527344 -94.050781 L 13.703125 -94.050781 Z M 13.703125 0 "/></g></g></g><g fill="#ffffff" fill-opacity="1"><g transform="translate(113.114361, 290.949517)"><g><path d="M 7.089844 0 L 26.824219 0 C 36.625 0 42.742188 -5.210938 42.742188 -13.621094 C 42.742188 -19.113281 40.03125 -23.210938 35.027344 -25.226562 C 38.988281 -27.242188 41.351562 -30.996094 41.351562 -35.722656 C 41.351562 -43.574219 35.234375 -48.648438 25.921875 -48.648438 L 7.089844 -48.648438 Z M 13.203125 -5.699219 L 13.203125 -22.03125 L 26.617188 -22.03125 C 32.941406 -22.03125 36.484375 -19.042969 36.484375 -13.898438 C 36.484375 -8.6875 32.941406 -5.699219 26.6875 -5.699219 Z M 13.203125 -27.589844 L 13.203125 -42.949219 L 25.785156 -42.949219 C 31.691406 -42.949219 35.097656 -40.167969 35.097656 -35.234375 C 35.097656 -30.371094 31.761719 -27.589844 25.785156 -27.589844 Z M 13.203125 -27.589844 "/></g></g></g><g fill="#ffffff" fill-opacity="1"><g transform="translate(187.542059, 290.949517)"><g><path d="M 25.296875 0.832031 C 37.042969 0.832031 44.128906 -6.878906 44.128906 -19.808594 L 44.128906 -48.648438 L 38.015625 -48.648438 L 38.015625 -20.222656 C 38.015625 -10.285156 33.636719 -5.144531 25.296875 -5.144531 C 17.027344 -5.144531 12.578125 -10.285156 12.578125 -20.222656 L 12.578125 -48.648438 L 6.53125 -48.648438 L 6.53125 -19.808594 C 6.53125 -6.878906 13.550781 0.832031 25.296875 0.832031 Z M 25.296875 0.832031 "/></g></g></g><g fill="#ffffff" fill-opacity="1"><g transform="translate(266.000217, 290.949517)"><g><path d="M 19.460938 0 L 25.4375 0 L 25.4375 -17.511719 L 43.714844 -48.648438 L 36.832031 -48.648438 L 22.515625 -24.046875 L 16.191406 -35.027344 L 8.269531 -48.648438 L 1.179688 -48.648438 L 19.460938 -17.511719 Z M 19.460938 0 "/></g></g></g></svg>